<svg height="184.97733746775532" width="350" style="width: 350px; height: 184.977px; position: absolute; top: 50%; left: 50%; transform: translate(-50%, -50%) scale(1); z-index: 0; cursor: pointer; overflow: visible;" xmlns="http://www.w3.org/2000/svg"><defs id="SvgjsDefs1001"></defs><g id="SvgjsG1007" featurekey="mugSzh-0" transform="matrix(1.2868589162826538,0,0,1.2868589162826538,111.12764032292117,-12.8718884152533)" fill="#000000"><path xmlns="http://www.w3.org/2000/svg" d="M19.1932983,66.6104126c-2.2771606-1.6025391-5.4462891-1.4003906-7.4823608,0.6356812  c-2.2773438,2.2773438-2.2773438,5.9833984,0,8.2607422c1.1386719,1.1386719,2.6347656,1.7080078,4.1298828,1.7080078  c1.4960938,0,2.9921875-0.5693359,4.1308594-1.7080078c2.0352173-2.0351562,2.2379761-5.2043457,0.635498-7.4821777  l6.4064941-6.4064941l4.9770508,4.9770508l-2.9428711,2.9428711c-0.390625,0.390625-0.390625,1.0234375,0,1.4140625  c0.1953125,0.1953125,0.4511719,0.2929688,0.7070312,0.2929688s0.5117188-0.0976562,0.7070312-0.2929688l2.9428711-2.9428711  l4.9770508,4.9770508l-6.4064941,6.4064941c-2.2786255-1.6031494-5.4477539-1.3989258-7.4821777,0.635498  c-2.2773438,2.2773438-2.2773438,5.9833984,0,8.2607422c1.1386719,1.1386719,2.6347656,1.7080078,4.1308594,1.7080078  c1.4951172,0,2.9912109-0.5693359,4.1298828-1.7080078c2.0352173-2.0351562,2.2379761-5.2043457,0.635498-7.4821777  l6.4064941-6.4064941l5.890625,5.890625l-2.9423828,2.9423828c-0.390625,0.390625-0.390625,1.0234375,0,1.4140625  c0.1953125,0.1953125,0.4511719,0.2929688,0.7070312,0.2929688s0.5117188-0.0976562,0.7070312-0.2929688l2.9423828-2.9423828  l2.1923828,2.1923828C49.4882812,84.0927734,49.7441406,84.1904297,50,84.1904297s0.5117188-0.0976562,0.7070312-0.2929688  l9.4970703-9.4970703l6.4064941,6.4064941c-1.602478,2.277832-1.3997192,5.4470215,0.635498,7.4821777  c1.1386719,1.1386719,2.6347656,1.7080078,4.1298828,1.7080078c1.4960938,0,2.9921875-0.5693359,4.1308594-1.7080078  c2.2773438-2.2773438,2.2773438-5.9833984,0-8.2607422c-2.0352783-2.0344238-5.2044678-2.2385254-7.4822998-0.6356201  l-6.4063721-6.4063721l11.3681641-11.3681641l6.4064941,6.4064941c-1.6025391,2.277832-1.3996582,5.4470215,0.635498,7.4821777  c1.1386719,1.1386719,2.6347656,1.7080078,4.1308594,1.7080078c1.4951172,0,2.9912109-0.5693359,4.1298828-1.7080078  c2.2773438-2.2773438,2.2773438-5.9833984,0-8.2607422c-2.0361328-2.0360718-5.2052002-2.2382202-7.4824219-0.6356812  l-6.40625-6.406311l9.4970703-9.4970703c0.390625-0.390625,0.390625-1.0234375,0-1.4140625l-2.1923828-2.1923828  l2.9423828-2.9423828c0.390625-0.390625,0.390625-1.0234375,0-1.4140625s-1.0234375-0.390625-1.4140625,0l-2.9423828,2.9423828  l-5.890625-5.890625l6.4064941-6.4064941c1.00354,0.7059326,2.1743164,1.0725098,3.3522949,1.0725098  c1.4951172,0,2.9912109-0.5693359,4.1298828-1.7080078c2.2773438-2.2773438,2.2773438-5.9833984,0-8.2607422  c-2.2783203-2.2792969-5.984375-2.2773438-8.2607422,0c-2.0351562,2.0352173-2.2380371,5.2043457-0.635498,7.4821777  l-6.4064941,6.4064941l-4.9770508-4.9770508l2.9428711-2.9428711c0.390625-0.390625,0.390625-1.0234375,0-1.4140625  s-1.0234375-0.390625-1.4140625,0l-2.9428711,2.9428711l-4.9770508-4.9770508l6.4064941-6.4064941  c1.003418,0.7059326,2.1740723,1.0725098,3.3513184,1.0725098c1.4960938,0,2.9921875-0.5693359,4.1308594-1.7080078  c2.2773438-2.2773438,2.2773438-5.9833984,0-8.2607422s-5.9833984-2.2783203-8.2607422,0  c-2.0352173,2.0352173-2.2379761,5.2043457-0.635498,7.4821777l-6.4064941,6.4064941l-5.890625-5.890625l2.9423828-2.9423828  c0.390625-0.390625,0.390625-1.0234375,0-1.4140625s-1.0234375-0.390625-1.4140625,0l-2.9423828,2.9423828l-2.1923828-2.1923828  c-0.390625-0.390625-1.0234375-0.390625-1.4140625,0l-9.4970703,9.4970703l-6.4064941-6.4064941  c1.602478-2.277832,1.3997192-5.4469604-0.635498-7.4821777c-2.2783203-2.2783203-5.984375-2.2773438-8.2607422,0  c-2.2773438,2.2773438-2.2773438,5.9833984,0,8.2607422c1.1386719,1.1386719,2.6347656,1.7080078,4.1308594,1.7080078  c1.1772461,0,2.3478394-0.3665771,3.3513184-1.0725098l6.4064941,6.4064941L27.0136719,38.3818359l-6.4064941-6.4064941  c1.602478-2.277832,1.3997192-5.4469604-0.635498-7.4821777c-2.2763672-2.2773438-5.9824219-2.2792969-8.2607422,0  c-2.2773438,2.2773438-2.2773438,5.9833984,0,8.2607422c1.1386719,1.1386719,2.6347656,1.7080078,4.1298828,1.7080078  c1.1779785,0,2.3487549-0.3665771,3.3522949-1.0725098l6.4064941,6.4064941l-9.4970703,9.4970703  c-0.390625,0.390625-0.390625,1.0234375,0,1.4140625l2.1923828,2.1923828l-2.9423828,2.9423828  c-0.390625,0.390625-0.390625,1.0234375,0,1.4140625c0.1953125,0.1953125,0.4511719,0.2929688,0.7070312,0.2929688  s0.5117188-0.0976562,0.7070312-0.2929688l2.9423828-2.9423828l5.890625,5.890625L19.1932983,66.6104126z M18.5576172,74.0927734  c-1.4970703,1.4970703-3.9335938,1.4990234-5.4326172,0c-1.4980469-1.4980469-1.4980469-3.9345703,0-5.4326172  c0.7490234-0.7490234,1.7324219-1.1230469,2.7158203-1.1230469c0.984375,0,1.9677734,0.3740234,2.7167969,1.1230469  C20.0556641,70.1582031,20.0556641,72.5947266,18.5576172,74.0927734z M31.3398438,86.875  c-1.4980469,1.4980469-3.9345703,1.4980469-5.4326172,0s-1.4980469-3.9345703,0-5.4326172  c0.7490234-0.7490234,1.7324219-1.1230469,2.7167969-1.1230469c0.9833984,0,1.9667969,0.3740234,2.7158203,1.1230469  C32.8378906,82.9404297,32.8378906,85.3769531,31.3398438,86.875z M74.0927734,81.4423828  c1.4980469,1.4980469,1.4980469,3.9345703,0,5.4326172c-1.4970703,1.4980469-3.9335938,1.4980469-5.4326172,0  c-1.4980469-1.4980469-1.4980469-3.9345703,0-5.4326172c0.7490234-0.7490234,1.7324219-1.1230469,2.7158203-1.1230469  C72.3603516,80.3193359,73.34375,80.6933594,74.0927734,81.4423828z M84.1591797,67.5371094  c0.9833984,0,1.9667969,0.3740234,2.7158203,1.1230469c1.4980469,1.4980469,1.4980469,3.9345703,0,5.4326172  c-1.4990234,1.4990234-3.9355469,1.4970703-5.4326172,0c-1.4980469-1.4980469-1.4980469-3.9345703,0-5.4326172  C82.1914062,67.9111328,83.1748047,67.5371094,84.1591797,67.5371094z M81.4423828,25.9072266  c0.7490234-0.7490234,1.7324219-1.1230469,2.7167969-1.1230469c0.9833984,0,1.9667969,0.3740234,2.7158203,1.1230469  c1.4980469,1.4980469,1.4980469,3.9345703,0,5.4326172c-1.4990234,1.4990234-3.9355469,1.4970703-5.4326172,0  C79.9443359,29.8417969,79.9443359,27.4052734,81.4423828,25.9072266z M68.6601562,13.125  c0.7490234-0.7490234,1.7324219-1.1230469,2.7158203-1.1230469c0.984375,0,1.9677734,0.3740234,2.7167969,1.1230469  c1.4980469,1.4980469,1.4980469,3.9345703,0,5.4326172c-1.4970703,1.4970703-3.9335938,1.4990234-5.4326172,0  C67.1621094,17.0595703,67.1621094,14.6230469,68.6601562,13.125z M25.9072266,18.5576172  c-1.4980469-1.4980469-1.4980469-3.9345703,0-5.4326172c0.7490234-0.7490234,1.7324219-1.1230469,2.7167969-1.1230469  c0.9833984,0,1.9667969,0.3740234,2.7158203,1.1230469c1.4980469,1.4980469,1.4980469,3.9345703,0,5.4326172  C29.8417969,20.0566406,27.4052734,20.0546875,25.9072266,18.5576172z M13.125,31.3398438  c-1.4980469-1.4980469-1.4980469-3.9345703,0-5.4326172c0.7490234-0.7490234,1.7324219-1.1230469,2.7158203-1.1230469  c0.984375,0,1.9677734,0.3740234,2.7167969,1.1230469c1.4980469,1.4980469,1.4980469,3.9345703,0,5.4326172  C17.0605469,32.8369141,14.6240234,32.8388672,13.125,31.3398438z M50,18.2236328L65.8857422,34.109375  c0.0008545,0.0008545,0.0010986,0.0020752,0.0019531,0.0029297s0.0020752,0.0010986,0.0029297,0.0019531L81.7763672,50  L50,81.7763672L34.1142578,65.890625c-0.0008545-0.0008545-0.0010986-0.0020752-0.0019531-0.0029297  s-0.0020752-0.0010986-0.0029297-0.0019531L18.2236328,50L50,18.2236328z"></path><path xmlns="http://www.w3.org/2000/svg" d="M36.8632812,58.9677734C36.9443359,58.9892578,37.0283203,59,37.1152344,59h24.4033203  c4.5556641,0,8.2626953-3.6962891,8.2626953-8.2402344s-3.7070312-8.2402344-8.2626953-8.2402344  c-0.1259766,0-0.2529297,0.0039062-0.3837891,0.0107422c-1.0283203-2.4345703-3.4443359-4.0712891-6.1416016-4.0712891  c-1.0576172,0-2.0771484,0.2451172-3.0039062,0.7158203c-1.4257812-2.6289062-4.2109375-4.3261719-7.2626953-4.3261719  c-4.5556641,0-8.2626953,3.6962891-8.2626953,8.2402344c0,0.359375,0.0244141,0.71875,0.0722656,1.078125  c-3.6796875,0.4560547-6.5371094,3.5957031-6.5371094,7.3876953C29.9990234,55.4414062,32.9980469,58.6601562,36.8632812,58.9677734  z M37.4638672,46.109375l0.2460938,0.0146484c0.3232422,0.0224609,0.6347656-0.1259766,0.8349609-0.3798828  s0.265625-0.5898438,0.1748047-0.9003906c-0.1699219-0.578125-0.2558594-1.1689453-0.2558594-1.7548828  c0-3.4404297,2.8095703-6.2402344,6.2626953-6.2402344c2.625,0,4.9892578,1.65625,5.8828125,4.1210938  c0.109375,0.2998047,0.3535156,0.5292969,0.6591797,0.6191406c0.3076172,0.0869141,0.6357422,0.0283203,0.8886719-0.1660156  c0.8251953-0.6308594,1.8056641-0.9638672,2.8359375-0.9638672c2.0908203,0,3.9394531,1.4042969,4.4951172,3.4140625  c0.1347656,0.4853516,0.609375,0.8017578,1.1083984,0.7226562c0.3574219-0.0517578,0.6503906-0.0761719,0.921875-0.0761719  c3.453125,0,6.2626953,2.7998047,6.2626953,6.2402344S64.9716797,57,61.5185547,57H37.3007812  c-0.0439453-0.0078125-0.0888672-0.0136719-0.1337891-0.0166016c-2.8984375-0.1552734-5.1679688-2.5400391-5.1679688-5.4287109  C31.9990234,48.5517578,34.4501953,46.109375,37.4638672,46.109375z"></path></g><g id="SvgjsG1008" featurekey="PPkF4s-0" transform="matrix(2.226179838180542,0,0,2.226179838180542,-2.1816573648745043,111.29029662170491)" fill="#000000"><path d="M12 9.84 l-1.82 0 c-0.1 -2.22 -1.94 -2.92 -3.56 -2.92 c-1.22 0 -3.28 0.34 -3.28 2.52 c0 1.22 0.86 1.62 1.7 1.82 l4.1 0.94 c1.86 0.44 3.26 1.56 3.26 3.84 c0 3.4 -3.16 4.34 -5.62 4.34 c-2.66 0 -3.7 -0.8 -4.34 -1.38 c-1.22 -1.1 -1.46 -2.3 -1.46 -3.64 l1.82 0 c0 2.6 2.12 3.36 3.96 3.36 c1.4 0 3.76 -0.36 3.76 -2.42 c0 -1.5 -0.7 -1.98 -3.06 -2.54 l-2.94 -0.68 c-0.94 -0.22 -3.06 -0.88 -3.06 -3.38 c0 -2.24 1.46 -4.44 4.94 -4.44 c5.02 0 5.52 3 5.6 4.58 z M19.12 13.440000000000001 l4.24 6.56 l-2.26 0 l-3.26 -5.28 l-1.46 1.32 l0 3.96 l-1.7 0 l0 -14.36 l1.7 0 l0 8.32 l4.5 -4.42 l2.24 0 z M28.38 18.06 l2.8 -8.52 l1.94 0 c-1.22 3.42 -2.42 6.84 -3.76 10.26 c-1.66 4.24 -1.84 4.48 -4.1 4.48 c-0.26 0 -0.46 -0.08 -0.74 -0.16 l0 -1.6 c0.22 0.08 0.58 0.18 1.06 0.18 c0.92 0 1.02 -0.26 1.86 -2.42 l-3.88 -10.74 l2 0 l2.78 8.52 l0.04 0 z M38.300000000000004 18.06 l2.96 -8.52 l1.92 0 l-3.98 10.46 l-1.88 0 l-3.82 -10.46 l2.04 0 l2.72 8.52 l0.04 0 z M46.440000000000005 9.54 l0 10.46 l-1.76 0 l0 -10.46 l1.76 0 z M46.440000000000005 7.640000000000001 l-1.76 0 l0 -2 l1.76 0 l0 2 z M56.2 16.72 l1.76 0 c-0.06 0.5 -0.54 1.98 -1.86 2.86 c-0.48 0.32 -1.16 0.72 -2.84 0.72 c-2.94 0 -4.68 -2.22 -4.68 -5.24 c0 -3.24 1.56 -5.82 5.02 -5.82 c3.02 0 4.5 2.4 4.5 6.1 l-7.64 0 c0 2.18 1.02 3.44 3.04 3.44 c1.66 0 2.64 -1.28 2.7 -2.06 z M50.46 13.940000000000001 l5.82 0 c-0.1 -1.62 -0.78 -3.12 -2.92 -3.12 c-1.62 0 -2.9 1.5 -2.9 3.12 z M66.06 11.9 l-2.04 8.1 l-1.82 0 l-3.02 -10.46 l1.92 0 l2 8.22 l0.04 0 l2.02 -8.22 l1.96 0 l2.04 8.22 l0.04 0 l2.12 -8.22 l1.76 0 l-3.04 10.46 l-1.82 0 l-2.12 -8.1 l-0.04 0 z M88.44 15.82 l-5.76 0 l-1.5 4.18 l-2 0 l5.4 -14.36 l2.2 0 l5.2 14.36 l-2.12 0 z M83.28 14.1 l4.46 0 l-2.12 -6.32 l-0.04 0 z M102.06 12.879999999999999 l0 7.12 l-1.76 0 l0 -6.44 c0 -1.82 -0.52 -2.74 -2.24 -2.74 c-1 0 -2.76 0.64 -2.76 3.48 l0 5.7 l-1.76 0 l0 -10.46 l1.66 0 l0 1.48 l0.04 0 c0.38 -0.56 1.36 -1.78 3.16 -1.78 c1.62 0 3.66 0.66 3.66 3.64 z M106.22000000000001 12.719999999999999 l-1.62 0 c0.08 -2.5 1.74 -3.48 4.32 -3.48 c0.84 0 3.88 0.24 3.88 2.92 l0 6.02 c0 0.44 0.22 0.62 0.58 0.62 c0.16 0 0.38 -0.04 0.58 -0.08 l0 1.28 c-0.3 0.08 -0.56 0.2 -0.96 0.2 c-1.56 0 -1.8 -0.8 -1.86 -1.6 c-0.68 0.74 -1.74 1.7 -3.78 1.7 c-1.92 0 -3.28 -1.22 -3.28 -3.02 c0 -0.88 0.26 -2.92 3.18 -3.28 l2.9 -0.36 c0.42 -0.04 0.92 -0.2 0.92 -1.24 c0 -1.1 -0.8 -1.7 -2.46 -1.7 c-2 0 -2.28 1.22 -2.4 2.02 z M111.04000000000002 16.38 l0 -1.72 c-0.28 0.22 -0.72 0.38 -2.9 0.66 c-0.86 0.12 -2.24 0.38 -2.24 1.7 c0 1.14 0.58 1.82 1.9 1.82 c1.64 0 3.24 -1.06 3.24 -2.46 z M117.58000000000001 5.640000000000001 l0 14.36 l-1.76 0 l0 -14.36 l1.76 0 z M123.96000000000002 18.06 l2.8 -8.52 l1.94 0 c-1.22 3.42 -2.42 6.84 -3.76 10.26 c-1.66 4.24 -1.84 4.48 -4.1 4.48 c-0.26 0 -0.46 -0.08 -0.74 -0.16 l0 -1.6 c0.22 0.08 0.58 0.18 1.06 0.18 c0.92 0 1.02 -0.26 1.86 -2.42 l-3.88 -10.74 l2 0 l2.78 8.52 l0.04 0 z M134.06 11 l-1.68 0 l0 6.8 c0 0.82 0.7 0.82 1.06 0.82 l0.62 0 l0 1.38 c-0.64 0.06 -1.14 0.14 -1.32 0.14 c-1.74 0 -2.12 -0.98 -2.12 -2.24 l0 -6.9 l-1.42 0 l0 -1.46 l1.42 0 l0 -2.92 l1.76 0 l0 2.92 l1.68 0 l0 1.46 z M137.58 9.54 l0 10.46 l-1.76 0 l0 -10.46 l1.76 0 z M137.58 7.640000000000001 l-1.76 0 l0 -2 l1.76 0 l0 2 z M148.46 13.059999999999999 l-1.7 0 c-0.22 -1.4 -1 -2.24 -2.48 -2.24 c-2.18 0 -2.88 2.08 -2.88 3.94 c0 1.8 0.44 4.02 2.86 4.02 c1.18 0 2.2 -0.88 2.5 -2.48 l1.7 0 c-0.18 1.66 -1.2 4 -4.26 4 c-2.94 0 -4.68 -2.22 -4.68 -5.24 c0 -3.24 1.56 -5.82 5.02 -5.82 c2.74 0 3.78 2 3.92 3.82 z M157.86 12.52 l-1.7 0 c-0.02 -0.66 -0.26 -1.76 -2.48 -1.76 c-0.54 0 -2.08 0.18 -2.08 1.48 c0 0.86 0.54 1.06 1.9 1.4 l1.76 0.44 c2.18 0.54 2.94 1.34 2.94 2.76 c0 2.16 -1.78 3.46 -4.14 3.46 c-4.14 0 -4.44 -2.4 -4.5 -3.66 l1.7 0 c0.06 0.82 0.3 2.14 2.78 2.14 c1.26 0 2.4 -0.5 2.4 -1.66 c0 -0.84 -0.58 -1.12 -2.08 -1.5 l-2.04 -0.5 c-1.46 -0.36 -2.42 -1.1 -2.42 -2.54 c0 -2.3 1.9 -3.34 3.96 -3.34 c3.74 0 4 2.76 4 3.28 z"></path></g><g id="SvgjsG1009" featurekey="uwAHB0-0" transform="matrix(0.6705109477043152,0,0,0.6705109477043152,35.0804609189183,171.32573388292337)" fill="#000000"><path d="M1.46 5.84 l4.28 6.72 l4.38 -6.72 l1.48 0 l-5.2 8.06 l0 6.1 l-1.32 0 l0 -6.1 l-5.2 -8.06 l1.58 0 z M24.488 12.92 q0 2.7 1.66 4.45 t4.34 1.79 q2.7 0 4.34 -1.77 t1.66 -4.47 q0 -2.74 -1.64 -4.47 t-4.38 -1.77 q-2.68 0 -4.32 1.76 t-1.66 4.48 z M30.488 5.48 q2.16 0 3.82 0.95 t2.57 2.66 t0.93 3.83 q0 3.26 -2.06 5.33 t-5.26 2.11 q-3.22 0 -5.24 -2.09 t-2.08 -5.35 q0.02 -3.26 2.04 -5.32 t5.28 -2.12 z M52.495999999999995 5.84 l0 8.5 q0 2.3 0.95 3.54 t2.89 1.28 q3.8 0 3.84 -5.02 l0 -8.3 l1.32 0 l0 8.64 q0 2.78 -1.3 4.32 t-3.86 1.56 q-2.52 0 -3.83 -1.53 t-1.33 -4.25 l0 -8.74 l1.32 0 z M80.00399999999999 12.08 q1.54 0 2.38 -0.69 t0.84 -1.83 t-0.82 -1.82 t-2.44 -0.7 l-2.86 0 l0 5.04 l2.9 0 z M79.604 5.84 q4.9 0 4.94 3.72 q0 3.14 -3.62 3.64 l4.12 6.8 l-1.5 0 l-3.98 -6.72 l-2.46 0 l0 6.72 l-1.32 0 l0 -14.16 l3.82 0 z M118.13999999999999 18.8 q3.04 0 4.8 -1.54 t1.78 -4.24 q0 -2.88 -1.75 -4.42 t-4.89 -1.56 l-2.76 0 l0 11.76 l2.82 0 z M118.41999999999999 5.84 q3.56 0 5.57 1.92 t2.05 5.26 q0 1.96 -0.89 3.55 t-2.56 2.51 t-4.09 0.92 l-4.5 0 l0 -14.16 l4.42 0 z M140.98799999999997 5.84 l0 14.16 l-1.32 0 l0 -14.16 l1.32 0 z M161.93599999999998 5.48 q3.2 -0.02 5.1 1.96 l-0.96 1 q-0.6 -0.74 -1.77 -1.25 t-2.37 -0.51 q-2.66 0 -4.32 1.76 t-1.68 4.48 q0 2.7 1.64 4.44 t4.38 1.8 q2.6 0 3.94 -0.84 l0 -4.76 l-3.4 0 l0 -1.2 l4.72 0 l0 6.72 q-2.3 1.28 -5.28 1.28 q-3.2 0 -5.23 -2.09 t-2.09 -5.35 q0.02 -3.28 2.06 -5.34 t5.26 -2.1 z M183.08399999999997 5.84 l0 14.16 l-1.32 0 l0 -14.16 l1.32 0 z M206.932 5.84 l0 1.2 l-4.84 0 l0 12.96 l-1.32 0 l0 -12.96 l-4.84 0 l0 -1.2 l11 0 z M221.43999999999997 15.04 l6.5 0 l-3.2 -7.76 z M225.47999999999996 5.84 l5.96 14.16 l-1.48 0 l-1.54 -3.76 l-7.5 0 l-1.6 3.76 l-1.38 0 l6.18 -14.16 l1.36 0 z M245.46799999999996 5.84 l0 12.96 l6.6 0 l0 1.2 l-7.92 0 l0 -14.16 l1.32 0 z M282.00399999999996 5.84 l0 6.24 l7.92 0 l0 -6.24 l1.32 0 l0 14.16 l-1.32 0 l0 -6.72 l-7.92 0 l0 6.72 l-1.32 0 l0 -14.16 l1.32 0 z M306.19199999999995 12.92 q0 2.7 1.66 4.45 t4.34 1.79 q2.7 0 4.34 -1.77 t1.66 -4.47 q0 -2.74 -1.64 -4.47 t-4.38 -1.77 q-2.68 0 -4.32 1.76 t-1.66 4.48 z M312.19199999999995 5.48 q2.16 0 3.82 0.95 t2.57 2.66 t0.93 3.83 q0 3.26 -2.06 5.33 t-5.26 2.11 q-3.22 0 -5.24 -2.09 t-2.08 -5.35 q0.02 -3.26 2.04 -5.32 t5.28 -2.12 z M334.97999999999996 5.84 l5.16 11.88 l5.16 -11.88 l1.88 0 l0 14.16 l-1.32 0 l0 -12.48 l-0.04 0 l-5.4 12.48 l-0.58 0 l-5.48 -12.48 l-0.04 0 l0 12.48 l-1.32 0 l0 -14.16 l1.98 0 z M370.248 5.84 l0 1.2 l-7.34 0 l0 5.04 l6.88 0 l0 1.2 l-6.88 0 l0 5.52 l7.66 0 l0 1.2 l-8.98 0 l0 -14.16 l8.66 0 z M384.776 18.2 q0.4 0 0.68 0.28 t0.28 0.68 t-0.28 0.68 t-0.68 0.28 t-0.68 -0.28 t-0.28 -0.68 t0.28 -0.68 t0.68 -0.28 z M400.644 18.2 q0.4 0 0.68 0.28 t0.28 0.68 t-0.28 0.68 t-0.68 0.28 t-0.68 -0.28 t-0.28 -0.68 t0.28 -0.68 t0.68 -0.28 z M416.512 18.2 q0.4 0 0.68 0.28 t0.28 0.68 t-0.28 0.68 t-0.68 0.28 t-0.68 -0.28 t-0.28 -0.68 t0.28 -0.68 t0.68 -0.28 z"></path></g></svg>