<?xml version="1.0" encoding="UTF-8"?>
<svg id="LOGO_1" data-name="LOGO 1" xmlns="http://www.w3.org/2000/svg" viewBox="0 0 2000 2000">
  <defs>
    <style>
      .cls-1 {
        fill: #07294d;
      }

      .cls-2 {
        fill: #2076dc;
      }
    </style>
  </defs>
  <g id="TYPO_2" data-name="TYPO 2">
    <g>
      <g>
        <path class="cls-1" d="M685.59,1241.84l-4.26-10.69h-24.41l-4.26,10.69h-6.64l19.35-48.16h7.44l19.42,48.16h-6.64ZM669.13,1199.02l-10.47,26.79h20.87l-10.4-26.79Z"/>
        <path class="cls-1" d="M735.48,1241.84l-28.09-38.85v38.85h-5.99v-48.16h6.14l27.73,38.05v-38.05h5.99v48.16h-5.78Z"/>
        <path class="cls-1" d="M790,1241.84l-4.26-10.69h-24.41l-4.26,10.69h-6.64l19.35-48.16h7.44l19.42,48.16h-6.64ZM773.53,1199.02l-10.47,26.79h20.87l-10.4-26.79Z"/>
        <path class="cls-1" d="M805.81,1241.84v-48.16h5.99v42.82h22.38v5.34h-28.38Z"/>
        <path class="cls-1" d="M850.65,1241.84v-20.36l-18.99-27.8h7l14.95,22.38,14.95-22.38h7l-18.92,27.8v20.36h-5.99Z"/>
        <path class="cls-1" d="M896.64,1241.84v-42.82h-15.24v-5.34h36.54v5.34h-15.31v42.82h-5.99Z"/>
        <path class="cls-1" d="M928.77,1241.84v-48.16h5.99v48.16h-5.99Z"/>
        <path class="cls-1" d="M946.97,1217.8c0-14.8,10.9-24.91,24.55-24.91,8.74,0,14.66,4.12,18.48,9.53l-5.05,2.82c-2.74-4.04-7.73-7-13.43-7-10.33,0-18.34,8.09-18.34,19.57s8.01,19.57,18.34,19.57c5.7,0,10.69-2.89,13.43-7l5.13,2.82c-4.04,5.49-9.82,9.53-18.56,9.53-13.65,0-24.55-10.11-24.55-24.91Z"/>
        <path class="cls-1" d="M1001.27,1230.51c3.18,3.54,8.38,6.86,15.16,6.86,8.59,0,11.34-4.62,11.34-8.3,0-5.78-5.85-7.37-12.2-9.1-7.73-2.02-16.32-4.19-16.32-13.65,0-7.94,7.08-13.36,16.54-13.36,7.36,0,13.07,2.46,17.11,6.71l-3.61,4.41c-3.61-3.97-8.66-5.78-13.94-5.78-5.78,0-9.89,3.1-9.89,7.65,0,4.84,5.56,6.28,11.7,7.94,7.87,2.09,16.82,4.55,16.82,14.66,0,7-4.77,14.15-17.76,14.15-8.38,0-14.51-3.18-18.48-7.65l3.54-4.55Z"/>
        <path class="cls-1" d="M1079.68,1217.8c0-14.8,10.9-24.91,24.55-24.91,8.74,0,14.66,4.12,18.48,9.53l-5.05,2.82c-2.74-4.04-7.73-7-13.43-7-10.33,0-18.34,8.09-18.34,19.57s8.01,19.57,18.34,19.57c5.7,0,10.69-2.89,13.43-7l5.13,2.82c-4.04,5.49-9.82,9.53-18.56,9.53-13.65,0-24.55-10.11-24.55-24.91Z"/>
        <path class="cls-1" d="M1133.33,1241.84v-48.16h31.55v5.34h-25.56v15.52h25.05v5.34h-25.05v16.61h25.56v5.34h-31.55Z"/>
        <path class="cls-1" d="M1211.38,1241.84l-28.09-38.85v38.85h-5.99v-48.16h6.14l27.73,38.05v-38.05h5.99v48.16h-5.78Z"/>
        <path class="cls-1" d="M1243.22,1241.84v-42.82h-15.24v-5.34h36.54v5.34h-15.31v42.82h-5.99Z"/>
        <path class="cls-1" d="M1275.35,1241.84v-48.16h31.55v5.34h-25.56v15.52h25.06v5.34h-25.06v16.61h25.56v5.34h-31.55Z"/>
        <path class="cls-1" d="M1347.2,1241.84l-12.27-19.13h-9.6v19.13h-5.99v-48.16h19.35c8.81,0,15.09,5.63,15.09,14.51s-5.92,13.43-12.49,14.01l13,19.64h-7.08ZM1337.95,1199.02h-12.64v18.41h12.64c5.7,0,9.6-3.83,9.6-9.24s-3.9-9.17-9.6-9.17Z"/>
      </g>
      <g id="TWIST_1" data-name="TWIST 1">
        <path class="cls-1" d="M745.09,1105.34c0,24.8-18.98,40.21-49.54,40.21-21.38,0-38.75-6.53-51.63-19.41l-1.51-1.51,16.75-23.18,2.07,2.16c5.41,5.64,17.21,15.09,35.55,15.09,12.33,0,17.94-5.56,17.94-10.72,0-6.32-7.05-9.08-21.85-12.54l-.79-.18c-19-4.35-45.02-10.31-45.02-38.2,0-22.32,19.36-37.91,47.08-37.91,19.28,0,35.27,5.74,47.51,17.05l1.66,1.54-16.96,22.33-2.02-1.88c-8.37-7.75-20.02-12.19-31.95-12.19-9.25,0-14.77,3.54-14.77,9.48s8.17,8.01,21.5,11.13c19.4,4.41,45.98,10.45,45.98,38.73Z"/>
        <polygon class="cls-1" points="851.22 1143.43 816.91 1143.43 795.37 1112.14 787.95 1120.07 787.95 1143.43 760.57 1143.43 760.57 1019 787.95 1029.3 787.95 1086.92 816.54 1053.33 850.68 1053.33 814.74 1094.54 851.22 1143.43"/>
        <path class="cls-1" d="M955.48,1053.33l-41.38,102.46c-4.59,11.61-19.23,24.77-26.97,27.43l-9.68-23.71c1.52-.77,10.16-9.51,10.92-11.17l2.73-6.22-35.52-88.79h29.39l20.47,54.58,20.46-54.58h29.58Z"/>
        <polygon class="cls-1" points="1059.95 1053.33 1023.77 1143.43 996.25 1143.43 960.06 1053.33 989.45 1053.33 1009.92 1107.91 1030.39 1053.33 1059.95 1053.33"/>
        <polygon class="cls-1" points="1095.27 1063.33 1095.27 1143.43 1067.89 1143.43 1067.89 1053.33 1095.27 1063.33"/>
        <path class="cls-1" d="M1093.06,1018.53c-2.9-2.6-6.67-3.88-11.35-3.88s-8.34,1.29-11.26,3.88c-2.94,2.62-4.4,6.2-4.4,10.74s1.46,7.86,4.4,10.48c2.92,2.6,6.69,3.88,11.26,3.88s8.45-1.29,11.35-3.88c2.88-2.62,4.32-6.1,4.32-10.48s-1.44-8.13-4.32-10.74Z"/>
        <path class="cls-1" d="M1202.79,1100.58c0-29.06-18.56-49.36-45.14-49.36s-46.55,20.24-46.55,47.07,19.72,47.26,47.96,47.26c14.73,0,28.13-4.55,36.75-12.47l1.6-1.46-12.76-18.69-2.13,2.07c-4.72,4.56-13.35,7.75-20.99,7.75-10.88,0-19.01-5.69-21.45-14.73h62.71v-7.44ZM1157.65,1074.01c11.36,0,16.69,6.97,18.11,13.86h-36.05c1.81-6.91,7.29-13.86,17.94-13.86Z"/>
        <polygon class="cls-1" points="1350.36 1053.33 1322.94 1143.43 1295.46 1143.43 1279.33 1091.41 1263.2 1143.43 1235.54 1143.43 1208.12 1053.33 1236.65 1053.33 1250.8 1104.43 1267.47 1053.33 1291.01 1053.33 1307.68 1104.43 1321.83 1053.33 1350.36 1053.33"/>
      </g>
    </g>
  </g>
  <g id="ICON_NOW">
    <g>
      <polygon class="cls-2" points="973.64 957.48 945.49 984.23 873.22 984.23 873.22 898.86 892.62 880.43 914.22 900.97 902.97 911.64 902.98 954.48 933.6 954.48 952.05 936.95 973.64 957.48"/>
      <polygon class="cls-2" points="1112.92 904.66 1112.92 984.24 1077.78 984.24 1034.59 984.23 1034.57 984.23 1006.43 957.49 1028.01 936.97 1046.45 954.49 1083.16 954.49 1083.16 917.43 1065.85 900.99 1087.44 880.46 1112.92 904.66"/>
    </g>
    <polygon class="cls-2" points="1126.78 819.99 1125.96 869.59 1096.85 840.49 1083.78 853.35 1083.44 853.69 1076.54 860.24 1071.36 865.18 1049.76 885.7 1011.91 921.66 1011.9 921.64 990.27 942.14 990.03 941.92 968.42 921.38 945.1 899.23 930.57 885.43 908.97 864.92 902.97 859.22 896.94 853.49 873.22 830.95 873.22 744.55 944.38 744.55 975.7 774.3 990.03 787.91 1004.35 774.3 1014.66 764.51 1006.07 757.1 1054.87 744.01 1044.2 789.95 1037.32 784.03 1011.63 808.43 990.02 828.95 968.42 808.43 932.49 774.3 902.97 774.3 902.97 818.18 930.57 844.38 952.17 864.91 990.02 900.86 990.38 901.21 1025.17 868.14 1049.75 844.64 1075.7 819.33 1101.24 794.45 1122.26 815.47 1126.78 819.99"/>
  </g>
</svg>